<svg width="318" height="142" viewBox="0 0 318 142" fill="none" xmlns="http://www.w3.org/2000/svg">
<g clip-path="url(#clip0_154_60)">
<path fill-rule="evenodd" clip-rule="evenodd" d="M0.24292 44.4623V66.602H65.0046C72.5319 66.602 82.1491 59.6416 82.1491 48.1272C82.1491 43.4963 83.9203 40.4754 78.4772 34.3498L70.1937 24.5349C65.4473 20.107 70.7607 20.107 74.7476 20.107H102.091V66.602H123.775V20.107H153.001V0.195312H58.3626C46.8482 0.195312 41.2179 11.2511 41.5347 17.0074C41.8527 22.7637 42.912 30.0059 52.4803 38.706C61.2083 46.6395 48.159 44.4623 46.8482 44.4623H0.24292ZM200.951 0.195312H165.968L146.358 66.6037H168.182L171.723 57.3051H194.748L198.166 66.6037H219.544L200.951 0.195312ZM176.595 41.3628L184.123 17.0074L191.209 41.3628H176.595ZM288.625 44.4623C280.212 44.4623 280.212 41.3628 280.212 41.3628C287.421 41.3628 293.813 30.86 293.813 20.107C293.813 9.35394 283.312 0.195312 274.895 0.195312H227.831V66.6037H251.746V44.4641C251.746 44.4641 261.928 56.4195 267.242 61.2902C272.557 66.1609 272.998 66.6037 280.211 66.6037H317.75V44.4641C317.753 44.4623 297.038 44.4623 288.625 44.4623ZM266.927 28.9646H251.749V17.0074H266.927C273.885 17.0074 275.09 28.9646 266.927 28.9646ZM0.24292 75.015H24.7086L30.9077 97.1582L36.664 75.015H62.3477L68.9896 97.1582L75.6332 75.015H96.8873L77.4026 141.439H57.9198L49.3825 109.997L39.7634 141.439H19.8379L0.24292 75.015ZM147.098 75.3983H112.116L92.5067 141.805H114.329L117.872 132.508H140.899L144.317 141.805H165.697L147.098 75.3983ZM122.744 116.564L130.272 92.2086L137.356 116.564H122.744ZM289.066 94.9442C285.085 94.9442 280.743 95.4097 285.491 99.8359L293.776 109.653C299.217 115.778 299.13 118.332 299.13 122.966C299.13 134.479 287.74 141.439 280.212 141.439L227.889 141.791C220.68 141.791 220.239 141.35 214.924 136.479C209.612 131.608 199.426 119.651 199.426 119.651V141.791H175.516V75.3841H222.579C230.992 75.3841 241.497 84.5445 241.497 95.2958C241.497 106.051 235.105 116.552 227.893 116.552C227.893 116.552 231.064 119.74 236.378 119.74C241.693 119.74 262.152 119.758 262.152 119.758C263.461 119.758 276.509 121.936 267.783 114.002C258.214 105.302 257.156 98.0633 256.837 92.307C256.518 86.5507 261.496 75.0136 273.005 75.0136H317.757V94.9428H289.066V94.9442ZM214.605 104.152H199.424V92.1946H214.605C221.566 92.1946 222.768 104.152 214.605 104.152V104.152Z" fill="black"/>
</g>
<defs>
<clipPath id="clip0_154_60">
<rect width="318" height="142" fill="white"/>
</clipPath>
</defs>
</svg>
